<?xml version="1.0" encoding="UTF-8"?>
<!-- Плотный венок (3 место; бронза — CSS-фильтром).
     Форма из макета «3 place.svg», градиенты заменены одним общим. -->
<svg xmlns="http://www.w3.org/2000/svg" viewBox="0 0 721.9 689">
  <defs>
    <linearGradient id="wg" x1="0" y1="689" x2="721.9" y2="0" gradientUnits="userSpaceOnUse">
      <stop offset="0" stop-color="#dcb444"/>
      <stop offset=".25" stop-color="#fdd551"/>
      <stop offset=".45" stop-color="#ffff94"/>
      <stop offset=".6" stop-color="#fdd551"/>
      <stop offset=".8" stop-color="#eec54b"/>
      <stop offset="1" stop-color="#fdd551"/>
    </linearGradient>
  </defs>
  <g fill="url(#wg)">
    <path d="M255.1,15.2h0s5.5-5.2,7-6.2c0,0-5.3,5.1-7,6.2h0c7.6-2.8,13.8-7.8,13.1-11.7-8.1,2.4-13.6,7.8-13.1,11.7h0Z"/>
    <path d="M106.7,145.6c-3.4,1.9-19.5,8.7-19.5,8.8h0c10,6.2,25.6-.2,36.9-14.5-8.3-8.1-25.9-1.6-36.9,14.5h0c3.6-3.1,19.5-8.9,19.5-8.8h0Z"/>
    <path d="M61.1,257.2c-3,3.4-18.1,17.8-18,18,0,0,0,.1,0,.1,14.4,2.6,29-11.1,35.1-31.4-13.3-6-30.3,8.2-35.2,31.2,0,0,0,0,0,0,2.6-5.2,18-18.1,18-18h0Z"/>
    <path d="M57,290.3c-2.9,4-17.8,21.4-17.6,21.6,0,0,0,.1,0,.2,16,1.2,30.4-15.3,34.8-37.9-15.2-5.2-32.3,12-34.9,37.7,0,0,0,0,0,0,2.2-6,17.6-21.8,17.6-21.6Z"/>
    <path d="M47,403.4c20.4-3.8,32.8-28.7,31.8-57.4-20.6-2.4-37.3,24-32,57.1,0,0,0,0,0,0,0,0,0,.1.2.2h0ZM62,370.9c-2.4,5.5-14.6,30.4-15.1,32.2.8-8.4,14.9-32.5,15.1-32.2Z"/>
    <path d="M13.4,464c16.6,44.4,54.7,61.9,75.2,47.7v-.3c0,.6-33.5-16.4-40.3-23.3,2.2,1.7,32.8,17.8,40.3,23.3h0c-22.5-33.3-52.2-58.4-75.2-47.4h0Z"/>
    <path d="M132,568.5c21.9-19.2,19.3-57.7,1.3-91.9-27.6,9.4-32.9,53.8-1.7,91.7h0c.1,0,.2.1.3.1h0ZM127.7,517.9c.4,8.2,2.9,46.6,3.8,50.2-5.4-11.3-4.5-50.5-3.8-50.2Z"/>
    <path d="M84.5,599.4c38.3,41.9,89.5,43.6,104.1,19.1,0,0-.1-.2-.1-.3.2.8-44.3-2.5-54.9-7.2,3.6,1,44,4.9,54.9,7.2,0,0,0,0,0,0-41.2-25-83.9-40.3-103.9-18.7h0Z"/>
    <path d="M135,660.3c57.5,42,122,30,131-2.3-.1,0-.2-.2-.3-.3.5,1.1-54.1,8.7-68.4,5.5,5.2.3,54.5-5,68.4-5.5,0,0,0,0,0,0-58.1-17.4-112.1-26.8-130.6,2.6Z"/>
    <path d="M405.9,684v-1.2c-51.5,1-98.2-10.4-139.7-25.3,12.7-31.7-13.4-70.6-48.9-99.2-24.9,21.8-11.9,71,43,97-25.9-9.8-49.7-22.4-71.3-37.2,17.1-23.3,5.2-60.3-19.9-90.3-23.9,14.3-21.2,56.1,15.2,87-19.4-13.8-37-29.4-52.7-46.4-16.2-17.6-30.3-36.7-42.4-57,22-12.6,26.6-45.9,15.8-78.5-23.9,4.1-34.9,38.1-18.5,73.9-9.2-15.9-17-32.5-23.6-49.5,22.1-8,31.6-37.8,26.3-69.5-22.9.5-37.7,31-27.4,66.7-6.3-16.7-11.3-33.9-15-51.3-3.4-16.1-5.8-32.4-7-48.7,18.7-.9,32.9-21.7,35.3-47.9-17.7-4.2-35,16.1-35.5,45-.9-13.2-1-26.5-.3-39.7.6-12.3,1.8-24.5,3.7-36.7,1.8-11.5,4.2-22.8,7.2-34.1,14.1,4,30-8.3,38.3-28-12.2-6.9-29.8,4.4-37.6,25.4,2.7-10,5.9-19.8,9.6-29.5,12.3,4.7,27.8-5.1,37.1-22.4-10.4-7.1-27.2,1.7-36.1,19.9,3.4-8.9,7.3-17.7,11.6-26.3,10.5,5.1,25.3-2.5,35-17.4-8.7-7-24.3-.2-33.9,15.1,4-8,8.4-15.9,13.1-23.6,5.1-8.4,10.7-16.6,16.7-24.6,9.5,6.8,25.7,1.5,38.5-11.9-7.2-8.3-24.3-4-36.9,9.8,5.3-6.9,10.9-13.7,16.9-20.3,7.9,6.7,23.1,3,35.9-8.4-5.9-7.9-21.6-5-34.1,6.5,5.4-5.9,11.1-11.7,17-17.3,6.6,6.5,20.6,4.1,33.2-5.6-4.7-7.4-19-5.6-31.2,3.8,5.4-5,10.9-9.8,16.7-14.5,5.5,6.2,18.4,4.7,30.5-3.5-3.7-6.8-16.7-6-28.5,1.8,5.1-4.1,10.5-8.2,15.9-12,4.6,5.9,16.6,5.2,28.3-1.8-3-6.4-14.9-6.1-26.1.3,5.1-3.6,10.3-7,15.7-10.4,3.8,5.6,15,5.5,26.4-.5-2.3-5.9-13.3-6.2-24.2-.8,4.8-3,9.7-5.8,14.7-8.6,3.1,5.1,13,5.3,23.4.4-1.8-5.2-11.3-5.8-21.1-1.6,4.4-2.4,8.9-4.7,13.4-7,2.5,4.7,11.6,5.2,21.3,1.1-1.3-4.8-9.9-5.6-19.1-2.2,4.1-2,8.3-4,12.6-5.9,2,4.2,10.1,4.9,18.9,1.5-1-4.2-8.4-5.1-16.6-2.5,3.4-1.5,7-3,10.5-4.4-.1,0-.3.1-.4.2h0c2-.5,9.4-.4,9.4-.4-1.7.2-9.4.4-9.4.4s0,0,0,0c2.7,3,10.3,3,17.6-.3-1.8-3-8.6-3.1-15.4-.6,1.3-.5,2.6-1.1,3.9-1.6,0-.1-.1-.2-.1-.3-5.5,2.2-10.9,4.4-16.1,6.7,7.4-4.2,12-9.9,9.6-13.6-9.3,3.9-14,10.5-11.9,14.6-4.3,1.9-8.4,3.9-12.6,5.9,8.1-5.1,13.2-11.8,10.2-15.8-10.3,4.7-15.2,12.4-12.5,16.9-4.6,2.3-9,4.6-13.4,7,8.6-5.9,13.9-13.5,10.4-18-11.1,5.6-15.9,14.3-12.6,19.2-5,2.8-9.9,5.7-14.8,8.7,9.4-7.2,15-16.2,10.7-21.1-12.2,6.9-17.1,17.1-12.9,22.5-5.4,3.4-10.6,6.9-15.7,10.4,9.6-8.3,15-18.3,10-23.5-12.7,8-17.1,19.4-12.2,25-5.5,3.9-10.8,7.9-15.9,12.1,9.9-9.6,15-21,9.2-26.4-13.2,9.5-17.1,22.2-11.2,28-5.8,4.7-11.4,9.6-16.7,14.6,10-11.3,14.8-24.2,7.9-29.9-13.7,11.3-16.8,25.7-9.8,31.7-5.9,5.6-11.6,11.4-17.1,17.3,10-13.2,14.2-27.9,6-33.8-14.2,13.5-16.1,29.7-7.8,35.8-5.9,6.6-11.6,13.4-16.9,20.4,9.7-15.4,12.9-32.1,3.3-38-14.3,16-14.8,34.1-4.9,40.1-5.2,6.9-10,13.9-14.5,21.1,7.3-15.5,8.4-31.3-1.3-36.3-12.4,16.8-11.2,34.7-.9,40-4.7,7.7-9.1,15.5-13.1,23.5,6.4-16.5,6.2-33.1-4.2-37.5-10.7,17.7-7.7,35.4,3.1,39.8-4.3,8.6-8.1,17.4-11.5,26.3,5.4-19,3.5-37.6-8.5-41.6-10.2,20.7-4.9,40.3,7.6,44.1-3.7,9.7-6.9,19.6-9.6,29.6,3.8-21.5-.1-42-13.9-45.3-9.1,23.9-1,45.1,13.2,47.9-2.6,9.9-4.8,19.8-6.5,29.8,1.1-21-5.1-39.8-18.7-41.8-6.4,24.5,3.7,44.6,18,46.2-1.7,10.7-2.8,21.4-3.5,32.2-1.2-23.2-10-43.4-25.2-44.2-4.4,27.7,9.1,48.7,24.9,48.8-.6,13.2-.5,26.4.3,39.5-4.2-27.8-17-51.6-35.2-50.8-1.8,33.2,17,56,35.4,53.7,1.1,14.8,3.1,29.6,6,44.1-9-29-25.9-52.7-45.5-49.4,2.6,37,26.8,59.5,46.5,54.3,3.7,17.4,8.7,34.4,15,51.1-15.3-32.3-38.5-58-60.5-51.2,8.8,42.3,40.5,63.8,61.6,54,7.2,18.6,15.9,36.6,26.1,53.8,11.2,18.9,24.3,36.8,39.2,53.5-32.6-30.3-69.3-51.7-92.4-35.3,28.1,48.3,76.4,60.1,96.1,39.4,16.8,18.2,35.8,34.8,56.8,49.2,23.2,16,49,29.3,77.2,39.5,41.6,15,88.5,27.3,140.3,26.4h0ZM253.2,21.2c-1.7,0-8.2-.5-9.9-.6,0,0,.1,0,.2,0,2.8-.2,9.7.6,9.7.6ZM249.3,12.8s-4,5.5-5.9,7.4c0,0-.1,0-.2,0,.9-1.2,4.8-6.4,6.1-7.5ZM239.7,27.9c-1.9.2-9.4-.2-11.1-.3,0,0,.1,0,.2,0,3.1-.4,11,.4,11,.4h0ZM234.8,18.6s-4.2,6.5-6.2,8.7c0,0-.1,0-.2,0,.9-1.4,5-7.4,6.4-8.8h0ZM225.1,35.8c-2.1.2-10.5,0-12.3,0,0,0,.1,0,.2,0,3.3-.5,12.1,0,12.1,0ZM219.2,25.6s-4.3,7.4-6.3,9.9c0,0-.1,0-.2,0,.8-1.5,5-8.4,6.5-10ZM209.8,45.2c-2.4.4-12,.6-13.9.7,0,0,.1,0,.2-.1,3.6-.8,13.7-.6,13.7-.6h0ZM202.4,33.9s-4.4,8.7-6.5,11.6c0,0-.1,0-.2.1.8-1.6,5.1-9.9,6.6-11.7h0ZM192.9,56.4c-2.5.5-12.9,1.2-14.9,1.4,0,0,.1,0,.2-.1,3.8-1.1,14.7-1.3,14.7-1.3h0ZM184.1,44.5c0,0-4.1,9.8-6.1,12.9,0,0-.1,0-.2.1.6-1.7,4.7-10.9,6.2-13h0ZM176.1,69.1c-2.7.7-14,2-16.1,2.4,0,0,.1,0,.2-.1,4-1.4,15.9-2.3,15.9-2.2h0ZM165.6,56.6c0,0-3.7,11-5.6,14.5,0,0-.1,0-.2.1.5-1.8,4.2-12.2,5.7-14.6h0ZM158.9,84.2c-2.9.9-15.3,3.1-17.4,3.6,0,0,.1,0,.1-.1,4.2-1.8,17.3-3.5,17.3-3.5h0ZM146.1,71c0,0-3.1,12.4-4.8,16.4,0,0-.1,0-.1.1.4-2,3.4-13.8,4.9-16.6ZM141.5,101.8c-3.1,1.2-16.7,4.5-18.9,5.2,0,0,0,0,.1-.2,4.4-2.3,18.7-5.1,18.7-5.1h0ZM126.2,88.1c0,0-2.2,14.1-3.7,18.6,0,0,0,0-.1.1.2-2.1,2.4-15.5,3.8-18.7ZM124.3,122.2c-3.3,1.5-18,6.3-20.2,7.2,0,0,0-.1.1-.2,4.6-2.9,20.1-7.1,20.1-7ZM106.1,108.2c-.1,0-1,15.8-2.1,20.8,0,0,0,.1-.1.2,0-2.2,1-17.3,2.2-21ZM87.3,133.1c0,0,.6,14.9,0,20.3,0,.1-.1.2-.2.3-.3-3-.7-17.1.1-20.6ZM73.2,179.7c3.9-3.6,18.1-10,18.1-9.9-2.9,2-16.3,8.9-18.2,10.1,0,0,0-.1,0-.2h0ZM70.9,159c0,0,2.2,15.6,2,20.6,0,0,0,.1,0,.2-.5-2.1-2.4-17-1.9-20.8ZM60.7,208.4c3.9-4.3,19.1-12.8,19.1-12.7-3.1,2.4-17.3,11.4-19.2,12.9,0,0,0-.1,0-.2h0ZM55.9,185.5c-.1,0,4.1,17.3,4.4,22.8,0,0,0,.1,0,.2-.7-2.2-4.5-18.8-4.3-23h0ZM50.3,240.5c3.7-5.1,19.6-16,19.6-15.8-3.1,3-17.8,14.3-19.7,16,0,0,0-.1,0-.2h0ZM42.6,215.7c-.1.1,6.4,18.8,7.4,24.8,0,0,0,.1,0,.2-1-2.2-7.1-20.2-7.3-24.9h0ZM33,250.9c0,.1,8,17.2,9.8,23.4,0,.1,0,.2,0,.3-1.7-3-9-19.2-9.8-23.8h0ZM25.5,286.4c-.1.1,10.7,18.1,13.5,24.7,0,.1,0,.2,0,.4-2.1-2.9-12.1-20.1-13.5-25h0ZM20.3,326.6c.8,1.5,15.6,20.8,19.1,27.4,0,0,0,.1,0,.2-1.9-1.9-16.8-21.6-19.1-27.5ZM39.8,353.9c2.2-7.7,17.2-27,17.4-26.8-2.6,4.7-16.1,24.4-17.4,27,0,0,0-.1,0-.2h0ZM21.5,375.5c1.1,1.5,19.6,20.1,24.8,27,0,.1,0,.2,0,.4-3.2-2.5-21.6-21.2-24.9-27.3ZM29.4,430.1c1.7,1.7,26.5,20.4,33,26.8,0,0,0,.1,0,.2-2.7-1.3-28.1-20.2-33-27h0ZM62.7,456.8c-.4-10,11.2-38.9,11.5-38.5-1.7,6.5-11,35.5-11.4,38.7,0,0,0-.1,0-.2h0ZM88.6,510.4c-2.1-11.2,5-43,5.4-42.7-.7,7-5.3,38.2-5.2,43.1,0-.1-.1-.2-.2-.3ZM80.4,550.5c3,1.5,39.4,13,50.4,17.5,0,0,.2.2.3.3-4.9-.4-42-11.8-50.7-17.8h0ZM188,617.4c-8.2-10.7-15.9-48.1-15.1-47.9,2.3,7.8,12.8,43.4,15.5,48.2-.1,0-.2-.2-.3-.2h0ZM265,657c-13.8-9.9-34-51.5-32.9-51.5,4.6,8.6,28.5,47.4,33.3,51.7-.1,0-.3,0-.4-.1Z"/>
    <path d="M464.3,14.1h0c-1.7-1.1-6.9-6.2-7-6.2,1.5,1,7,6.2,7,6.2h0c.5-3.9-5-9.3-13.1-11.7-.7,3.8,5.5,8.9,13,11.7h0Z"/>
    <path d="M595.3,138.8c11.3,14.3,26.9,20.7,36.9,14.7h0c0-.3-16.1-7.1-19.5-8.9,0-.1,15.9,5.6,19.5,8.8h0c-11-16.1-28.6-22.6-36.9-14.5Z"/>
    <path d="M641.2,242.9c6.1,20.3,20.7,34,35.1,31.4,0,0,0-.1,0-.1,0-.2-15.1-14.5-18-18,0-.2,15.4,12.8,18,18,0,0,0,0,0,0-4.9-23-21.9-37.2-35.2-31.2h0Z"/>
    <path d="M645.2,273.1c4.4,22.6,18.8,39.1,34.8,37.9,0,0,0-.1,0-.2.1-.2-14.8-17.6-17.7-21.6,0-.2,15.4,15.6,17.7,21.6,0,0,0,0,0,0-2.6-25.7-19.7-42.9-34.9-37.7h0Z"/>
    <path d="M640.7,345c-1,28.7,11.4,53.6,31.8,57.4,0,0,0-.1.2-.2,0,0,0,0,0,0,5.3-33.2-11.4-59.5-32-57.1h0ZM657.5,369.8c.2-.3,14.3,23.8,15.1,32.2-.5-1.9-12.8-26.7-15.1-32.2Z"/>
    <path d="M671.1,487c-6.8,6.9-40.2,23.9-40.3,23.3v.3c20.6,14.3,58.7-3.3,75.2-47.7-23-11.1-52.7,14.1-75.2,47.3h0c7.5-5.4,38-21.5,40.3-23.2h0Z"/>
    <path d="M586.2,475.5c-18,34.2-20.7,72.6,1.3,91.9.1,0,.2,0,.3-.1,0,0,0,0,0,0,31.3-37.9,25.9-82.3-1.7-91.7h0ZM587.9,567c1-3.6,3.5-41.9,3.8-50.2.7-.3,1.6,38.9-3.8,50.2Z"/>
    <path d="M585.9,609.9c-10.7,4.7-55.1,8-54.9,7.2,0,0,0,.2-.2.3,14.6,24.5,65.8,22.8,104.1-19.1-20-21.5-62.7-6.2-103.9,18.8,0,0,0,0,0,0,10.9-2.3,51.3-6.2,54.9-7.2h0Z"/>
    <path d="M522.2,662.1c-14.3,3.1-68.9-4.4-68.5-5.5,0,0-.2.2-.3.3,9,32.2,73.5,44.3,131,2.3-18.5-29.5-72.5-20.1-130.6-2.6,0,0,0,0,0,0,14,.5,63.3,5.9,68.5,5.5Z"/>
    <path d="M718.5,402.3c-22.1-6.8-45.3,18.9-60.5,51.2,6.3-16.7,11.3-33.8,15-51.1,19.7,5.3,43.9-17.2,46.5-54.3-19.5-3.3-36.5,20.4-45.5,49.4,2.9-14.6,4.9-29.3,6-44.1,18.3,2.3,37.2-20.5,35.4-53.7-18.2-.8-30.9,23-35.2,50.8.9-13.2,1-26.4.3-39.5,15.8-.1,29.4-21.1,24.9-48.8-15.2.8-24,21-25.2,44.2-.7-10.8-1.8-21.5-3.5-32.2,14.3-1.6,24.4-21.8,18-46.2-13.6,1.9-19.8,20.8-18.7,41.8-1.7-10-3.8-20-6.5-29.9,14.2-2.9,22.3-24,13.2-47.9-13.8,3.4-17.7,23.8-13.9,45.3-2.7-10-5.9-19.8-9.6-29.6,12.5-3.8,17.8-23.4,7.6-44.1-12.1,4-13.9,22.6-8.5,41.7-3.4-8.9-7.3-17.7-11.5-26.3,10.8-4.4,13.8-22.1,3.1-39.8-10.4,4.4-10.7,21-4.2,37.5-4-7.9-8.3-15.8-13-23.5,10.2-5.3,11.5-23.2-1-40-9.7,5-8.7,20.8-1.3,36.3-4.5-7.2-9.4-14.2-14.5-21.1,9.8-6.1,9.5-24.2-4.9-40.1-9.6,6-6.3,22.6,3.3,38-5.3-7-10.9-13.8-16.9-20.4,8.3-6.1,6.4-22.3-7.8-35.8-8.2,5.9-4,20.6,6,33.9-5.4-5.9-11.1-11.7-17-17.3,7-6,3.9-20.4-9.8-31.7-6.9,5.7-2.1,18.6,7.9,29.9-5.3-5-10.9-9.8-16.7-14.6,5.8-5.8,2-18.5-11.2-28-5.8,5.4-.7,16.8,9.2,26.4-5.2-4.1-10.5-8.2-16-12.1,4.9-5.6.5-17-12.2-25-5,5.2.4,15.2,10,23.5-5.1-3.6-10.3-7-15.7-10.4,4.2-5.4-.7-15.6-12.9-22.5-4.3,4.9,1.3,13.9,10.7,21.1-4.8-3-9.7-5.8-14.8-8.7,3.3-4.9-1.6-13.6-12.6-19.2-3.5,4.4,1.7,12,10.4,18-4.4-2.4-8.9-4.8-13.4-7,2.7-4.5-2.2-12.2-12.5-16.9-3,4.1,2.1,10.8,10.2,15.8-4.1-2-8.3-4-12.6-5.9,2.2-4.1-2.6-10.7-11.9-14.6-2.4,3.6,2.2,9.3,9.6,13.6-5.3-2.3-10.6-4.6-16.1-6.7,0,.1,0,.2-.1.3,1.3.5,2.6,1,3.9,1.6-6.7-2.5-13.5-2.4-15.4.7,7.3,3.3,14.9,3.3,17.6.3,0,0,0,0,0,0,0,0-7.7-.1-9.4-.4,0,0,7.4-.1,9.4.4h0c-.1,0-.3-.1-.5-.2,3.5,1.4,7,2.9,10.5,4.4-8.2-2.6-15.7-1.7-16.6,2.5,8.8,3.4,16.9,2.7,18.9-1.5,4.3,1.9,8.4,3.9,12.6,5.9-9.1-3.4-17.7-2.6-19,2.2,9.7,4.2,18.8,3.6,21.3-1.1,4.6,2.3,9,4.6,13.4,7-9.8-4.2-19.4-3.6-21.1,1.6,10.4,4.9,20.3,4.7,23.4-.4,5,2.8,9.9,5.7,14.7,8.6-10.9-5.4-21.8-5.1-24.2.8,11.4,6,22.6,6.2,26.4.5,5.4,3.4,10.6,6.8,15.7,10.4-11.3-6.4-23.2-6.7-26.2-.3,11.7,7,23.7,7.8,28.3,1.8,5.5,3.9,10.8,7.9,15.9,12-11.8-7.8-24.8-8.7-28.5-1.8,12.1,8.2,25.1,9.7,30.5,3.5,5.8,4.7,11.3,9.6,16.7,14.5-12.2-9.5-26.6-11.2-31.2-3.8,12.5,9.7,26.5,12.1,33.2,5.6,6,5.6,11.6,11.4,17,17.3-12.6-11.5-28.3-14.4-34.1-6.5,12.8,11.4,28,15.1,35.9,8.4,6,6.6,11.6,13.4,16.9,20.3-12.6-13.8-29.7-18.1-36.9-9.8,12.8,13.4,29,18.7,38.5,11.9,6,8,11.6,16.2,16.7,24.6,4.7,7.7,9.1,15.6,13.1,23.6-9.6-15.4-25.2-22.1-33.9-15.1,9.8,15,24.5,22.6,35,17.4,4.2,8.6,8.1,17.4,11.5,26.3-9-18.2-25.8-27-36.1-19.9,9.2,17.3,24.8,27.1,37.1,22.4,3.7,9.7,6.9,19.6,9.6,29.5-7.8-21-25.4-32.3-37.6-25.4,8.3,19.7,24.2,31.9,38.3,28,3,11.2,5.4,22.6,7.2,34.1,1.9,12.2,3.1,24.4,3.7,36.7.6,13.2.5,26.5-.3,39.7-.5-28.9-17.8-49.2-35.5-45,2.4,26.2,16.6,47,35.3,47.9-1.2,16.4-3.5,32.7-7,48.7-3.7,17.4-8.7,34.6-15,51.3,10.4-35.7-4.5-66.2-27.4-66.7-5.3,31.6,4.2,61.5,26.3,69.5-6.6,17-14.4,33.6-23.6,49.5,16.4-35.9,5.4-69.8-18.5-73.9-10.7,32.5-6.1,65.9,15.8,78.5-12.1,20.2-26.2,39.4-42.4,57-15.7,17-33.3,32.7-52.7,46.4,36.4-30.9,39.1-72.7,15.2-87-25.1,30-37,66.9-19.9,90.3-21.6,14.8-45.4,27.4-71.3,37.2,54.9-26,67.9-75.2,43-97-35.5,28.6-61.6,67.5-48.9,99.2-41.5,14.9-88.2,26.2-139.7,25.3v1.2c51.7,1,98.6-11.3,140.3-26.3,28.2-10.2,54-23.5,77.2-39.5,21-14.5,40-31,56.8-49.2,19.8,20.7,68,9,96.1-39.4-23.1-16.5-59.8,4.9-92.4,35.3,14.8-16.6,27.9-34.5,39.2-53.5,10.2-17.2,19-35.2,26.1-53.8,21.1,9.7,52.8-11.8,61.6-54h0ZM466.2,20.1s6.9-.9,9.7-.6c0,0,.1,0,.2,0-1.6.1-8.2.7-9.9.6h0ZM476.1,19.2c-1.9-1.9-5.9-7.4-5.9-7.4,1.3,1.1,5.2,6.3,6.1,7.5,0,0-.1,0-.2,0h0ZM479.8,26.9s7.9-.8,11-.4c0,0,.1,0,.2,0-1.7,0-9.2.5-11.1.3ZM490.9,26.2c-2-2.2-6.2-8.7-6.2-8.7,1.4,1.4,5.6,7.4,6.4,8.8,0,0-.1,0-.2,0ZM494.3,34.7s8.8-.5,12.1,0c0,0,.1,0,.2,0-1.8,0-10.2.1-12.2,0ZM506.6,34.4c-2-2.5-6.3-9.9-6.3-9.9,1.5,1.6,5.7,8.5,6.5,10,0,0-.1,0-.2-.1ZM509.7,44.1s10.1-.2,13.7.6c0,0,.1,0,.2,0-1.9,0-11.5-.3-13.9-.7h0ZM523.6,44.4c-2.1-2.9-6.4-11.6-6.5-11.6,1.6,1.9,5.9,10.1,6.7,11.7,0,0-.1,0-.2-.1h0ZM526.5,55.3s10.9.2,14.7,1.3c0,0,.1,0,.2.1-2-.2-12.3-.9-14.9-1.4h0ZM541.5,56.3c-2-3.2-6-12.9-6.1-12.9,1.6,2.1,5.6,11.3,6.2,13,0,0-.1,0-.2-.1h0ZM543.3,68s11.9.8,15.9,2.2c0,0,0,0,.2.1-2-.3-13.3-1.7-16.1-2.4h0ZM559.5,70c-1.9-3.5-5.5-14.5-5.6-14.5,1.5,2.4,5.2,12.8,5.7,14.6,0,0,0,0-.2-.1ZM560.6,83.1c0,0,13.1,1.7,17.3,3.5,0,0,0,0,.2.1-2.1-.5-14.5-2.7-17.4-3.6h0ZM578.1,86.3c-1.7-4-4.7-16.4-4.8-16.4,1.5,2.8,4.6,14.6,5,16.6,0,0,0,0-.2-.1ZM578,100.7c0,0,14.3,2.7,18.7,5.1,0,0,0,0,.1.2-2.1-.7-15.7-4-18.9-5.2ZM597,105.5c-1.5-4.5-3.6-18.6-3.7-18.6,1.4,3.2,3.7,16.7,3.8,18.7,0,0,0,0-.1-.2ZM595.1,121.2c0,0,15.5,4.1,20.1,7,0,0,0,.1.1.2-2.2-.9-16.8-5.7-20.2-7.2ZM615.6,128.1c0,0,0-.1-.1-.2-1.2-5-2-20.8-2.1-20.8,1.3,3.7,2.3,18.8,2.2,21ZM632.1,152.4c-.5-5.4.1-20.3,0-20.3.8,3.6.5,17.6.1,20.6,0-.1-.1-.2-.2-.3h0ZM628.1,168.7c0-.1,14.2,6.4,18.1,9.9,0,0,0,.1,0,.2-1.9-1.2-15.3-8.1-18.2-10.1ZM646.6,178.5c-.2-5,2.1-20.6,2-20.6.5,3.8-1.4,18.7-1.9,20.8,0,0,0-.1,0-.2h0ZM639.7,194.7c0-.1,15.3,8.4,19.1,12.7,0,0,0,.1,0,.2-1.9-1.5-16.1-10.4-19.2-12.9ZM659.1,207.2c.3-5.6,4.5-22.8,4.4-22.8.2,4.3-3.6,20.8-4.3,23,0,0,0-.1,0-.2ZM649.5,223.6c0-.2,16,10.7,19.6,15.8,0,0,0,.1,0,.2-1.8-1.7-16.6-13.1-19.7-16h0ZM669.5,239.4c1-6,7.5-24.7,7.4-24.8-.2,4.7-6.3,22.7-7.3,24.9,0,0,0-.1,0-.2h0ZM676.7,273.2c1.9-6.2,9.9-23.3,9.8-23.4-.7,4.5-8.1,20.8-9.8,23.8,0-.1,0-.2,0-.3ZM680.5,310c2.8-6.5,13.6-24.5,13.5-24.7-1.3,4.9-11.4,22.1-13.5,25,0-.1,0-.2,0-.4h0ZM680,352.8c3.5-6.5,18.3-25.9,19.1-27.4-2.3,5.9-17.2,25.6-19.2,27.5,0,0,0-.1,0-.2ZM662.3,326c.1-.2,15.2,19.1,17.4,26.8,0,0,0,.1,0,.2-1.3-2.6-14.7-22.3-17.4-27h0ZM673.2,401.4c5.2-6.8,23.7-25.5,24.8-27-3.3,6.1-21.7,24.8-24.9,27.3,0-.1,0-.2,0-.4ZM657.1,455.8c6.5-6.4,31.3-25.1,33-26.8-4.9,6.7-30.3,25.7-33,27,0,0,0-.1,0-.2h0ZM454.5,655.9c-.1,0-.3,0-.4.1,4.8-4.3,28.7-43.1,33.3-51.7,1.1,0-19.1,41.6-32.9,51.5ZM531.2,616.5c2.7-4.8,13.2-40.3,15.5-48.2.7-.1-6.9,37.2-15.1,47.9-.1,0-.2.2-.3.2h0ZM639.1,549.4c-8.6,6.1-45.8,17.4-50.7,17.8,0,0,.2-.2.3-.3,11-4.5,47.4-16,50.4-17.5h0ZM630.8,509.3c0,.1-.1.2-.2.3,0-4.9-4.5-36-5.2-43,.4-.3,7.5,31.5,5.4,42.7h0ZM656.8,455.7s0,.1,0,.2c-.4-3.3-9.7-32.2-11.4-38.7.3-.3,11.9,28.5,11.5,38.5Z"/>
  </g>
</svg>
