<?xml version="1.0" encoding="UTF-8"?>
<!-- Лавровый венок с лучами (1 и 2 место; серебро — CSS-фильтром).
     Форма из макета «1 place.svg», 58 градиентов заменены одним общим. -->
<svg xmlns="http://www.w3.org/2000/svg" viewBox="0 0 781.1 702.8">
  <defs>
    <linearGradient id="wg" x1="0" y1="702.8" x2="781.1" y2="0" gradientUnits="userSpaceOnUse">
      <stop offset="0" stop-color="#dcb444"/>
      <stop offset=".25" stop-color="#fdd551"/>
      <stop offset=".45" stop-color="#ffff94"/>
      <stop offset=".6" stop-color="#fdd551"/>
      <stop offset=".8" stop-color="#eec54b"/>
      <stop offset="1" stop-color="#fdd551"/>
    </linearGradient>
  </defs>
  <g fill="url(#wg)">
    <path d="M256.4,689.8c65.4,23.9,126.6,2.7,128.3-26.9l-.4-.2c.5.8-53.2,17.4-67.2,17.2.5.7,52.3-14.3,67.2-17.2,0,0,0,0,0,0-62.8-5.2-117.3-1.9-127.8,27.1h0Z"/>
    <path d="M173.1,645.1c52.5,33.1,110.7,23.8,120.4-3.5,0,0-.2-.2-.2-.3.4.8-51,7.1-63.4,4.6.3.7,49.9-4.5,63.4-4.6,0,0,0,0,0,0-52.9-15.7-103.3-21.6-120,3.9h0Z"/>
    <path d="M107.5,589c40.5,39.3,94.5,40.3,110.3,16.5,0,0-.1-.2-.2-.3.2.7-47.7-1.9-58.4-6.2.1.7,46.4,4,58.4,6.2,0,0,0,0,0,0-43.3-23.7-88.8-37.2-110.1-16.1h0Z"/>
    <path d="M60.8,528.6c29.8,42.7,78.8,52.1,98.9,32.3,0,0,0-.2,0-.3,0,.7-43.6-9.2-52.7-14.9,0,.6,42.2,10.8,52.7,14.9,0,0,0,0,0,0-34.6-29-74.6-48.6-98.8-31.9h0Z"/>
    <path d="M28.5,464.4c19.9,44.2,63.5,60.4,86.4,45,0-.1,0-.2,0-.3,0,.6-38.8-15.3-46.3-21.9,0,.6,37.4,16.5,46.3,21.9h0c-26.2-32.6-60.5-56.8-86.3-44.7h0Z"/>
    <path d="M10.1,400.6c11.2,44.1,48.9,65.4,73.3,54.3,0,0,0-.2,0-.3-.1.6-33.7-19.9-39.6-27.2-.2.5,32.2,20.7,39.6,27.2,0,0,0,0,0,0-18.6-34.4-46.9-61.8-73.4-54Z"/>
    <path d="M3.6,339.3c3.5,42.6,35.2,67.6,60.2,60.7,0,0,0-.2,0-.2-.2.5-28.4-23.3-32.8-30.8-.2.4,26.9,23.8,32.8,30.8,0,0,0,0,0,0-11.6-34.8-34.1-64.3-60.2-60.4h0Z"/>
    <path d="M7.5,278.3c-3.6,40.3,22,67.9,46.6,64.9,0,0,0-.1.1-.2-.3.4-22.8-25.7-25.7-33.3-.3.4,21.4,25.9,25.7,33.3,0,0,0,0,0,0-5.1-34.3-21.4-64.8-46.7-64.6Z"/>
    <path d="M20.8,222.5c-9.7,37.2,9.9,66.3,33.5,66.6,0,0,0-.1.2-.2-.3.3-17.3-27-18.8-34.5-.3.3,16,27,18.8,34.5,0,0,0,0,0,0,.7-32.8-9.9-63.6-33.7-66.4Z"/>
    <path d="M43.3,169.2c-15.1,33.6-1.5,63.1,20.5,66.6,0,0,.1-.1.2-.2-.3.3-11.7-27.5-12-34.7-.3.2,10.6,27.2,12,34.7,0,0,0,0,0,0,6.1-30.7,1.2-60.8-20.7-66.4h0Z"/>
    <path d="M72.8,122.6c-19.5,29.7-11.5,58.8,8.5,64.7,0,0,.1,0,.2-.1-.3.2-6.5-27.2-5.6-33.9-.3.2,5.5,26.8,5.6,33.9,0,0,0,0,0,0,10.7-28,11-56.9-8.7-64.6Z"/>
    <path d="M111.9,78.3c-23.5,25.4-21.2,53.5-3.5,61.5,0,0,.1,0,.2-.1-.3.1-1.3-26.2.8-32.4-.3.1.4,25.7-.8,32.4,0,0,0,0,0,0,15.1-24.9,20.4-52,3.3-61.4Z"/>
    <path d="M157.9,40.4c-26.7,21.1-29.6,47.4-14.5,57,0,0,.1,0,.2,0-.4,0,3.6-24.6,6.7-30.1-.3,0-4.3,24-6.7,30.1,0,0,0,0,0,0,18.7-21.5,28.8-46.3,14.2-56.9h0Z"/>
    <path d="M209.9,9c-29.1,16.8-36.6,40.9-24.3,51.6,0,0,.1,0,.2,0-.3,0,8-22.5,11.9-27.3-.3,0-8.5,21.9-11.9,27.3h0c21.7-18,35.9-40.1,24.1-51.5h0Z"/>
    <path d="M311.1,584.8c43,17.7,79.4,47.2,73.8,76.9-.1,0-.3,0-.4.1-1.4.4-39.5-32.1-46.4-39.1-1.2.2,30.8,33.8,46.4,39.1,0,0,0,0-.1,0-65-11.3-92.6-52.4-73.3-77h0Z"/>
    <path d="M249,555.9c34.7,23.9,58,57.9,45,84.6h-.4c-1.2.2-25.6-36.7-30.2-44.5-1,0,18.3,36.8,30.2,44.5h-.1c-53.1-21.7-68.3-64.7-44.6-84.6h0Z"/>
    <path d="M198.2,517.7c26.8,28.3,38.9,64.1,20.3,86.8-.1,0-.2,0-.4,0-1,0-13.7-38.7-16.1-46.7-.8-.2,7.6,37.5,16.1,46.7h-.1c-42-29.2-46.4-71.9-19.9-86.8h0Z"/>
    <path d="M160.3,475.4c19.6,30.8,22.6,66.4.4,84.7-.1,0-.2,0-.3,0-.8-.2-4-38.4-4.7-46.3-.7-.2-1,36.4,4.7,46.3,0,0,0,0,0,0-32.1-33.9-27.9-74.7,0-84.6h0Z"/>
    <path d="M132.3,429c12.8,32.1,8.3,66-16.3,79.7,0,0-.2,0-.3-.1-.7-.3,4.1-36.6,5-44.2-.5-.3-8.2,34-5,44.2,0,0,0,0,0,0-22.9-36.7-11.5-74.3,16.7-79.6Z"/>
    <path d="M114.2,381.7c6.7,32.2-3.9,63.5-29.7,72.7,0,0-.2-.1-.2-.2-.5-.3,10.6-33.8,12.7-40.8-.4-.4-13.8,30.9-12.7,40.8,0,0,0,0,0,0-14.7-37.7,2.4-71.5,29.9-72.5h0Z"/>
    <path d="M104.9,335.2c1.2,31.5-14.1,59.5-40,64.6,0,0-.1-.1-.2-.2-.4-.4,15.7-30.3,18.8-36.6-.3-.4-18.1,27.2-18.8,36.6,0,0,0,0,0,0-7.4-37.3,14-66.9,40.2-64.3h0Z"/>
    <path d="M103.6,287.7c-4,30-23.2,54.3-48.3,55.4,0,0,0-.1-.2-.2-.3-.4,19.9-26.3,23.8-31.9-.2-.4-21.5,23.1-23.8,31.9,0,0,0,0,0,0-.7-35.9,24.2-61,48.5-55.2h0Z"/>
    <path d="M110.6,240.1c-8.9,27.9-31,48.1-54.7,45.7,0,0,0-.1-.1-.2-.2-.4,23.1-21.9,27.8-26.7-.2-.4-24.1,18.9-27.8,26.7,0,0,0,0,0,0,5.5-33.7,33.1-54.1,54.9-45.4Z"/>
    <path d="M123.5,199.3c-12.7,25.5-36.6,41.9-58.5,36.7,0,0,0-.1,0-.2-.2-.4,25.1-17.8,30.2-21.8,0-.3-25.6,14.9-30.2,21.8,0,0,0,0,0,0,10.4-30.9,39.4-47,58.6-36.4Z"/>
    <path d="M143.4,159.9c-16.2,22.7-41.2,35.3-60.9,27.8,0,0,0-.1,0-.2,0-.3,26.4-13.7,31.8-16.9,0-.3-26.4,11.1-31.8,16.9h0c14.7-27.7,44.6-39.7,61-27.6h0Z"/>
    <path d="M171.6,121.4c-19.5,19.6-45.2,28.4-62.2,18.9v-.2c0-.3,27.1-9.7,32.9-12,0-.3-26.8,7.3-32.9,12h0c18.6-24.1,49-31.9,62.2-18.7h0Z"/>
    <path d="M206.4,87.3c-22.2,16.4-47.9,21.6-62.1,10.8,0,0,0-.1,0-.2,0-.3,27.2-5.9,33.1-7.5,0-.2-26.5,3.8-33.1,7.5,0,0,0,0,0,0,21.9-20.2,52-24.3,62.1-10.5h0Z"/>
    <path d="M247.2,57.9c-24.4,13.1-49.6,15.2-60.9,3.5,0,0,0-.1,0-.2,0-.2,26.8-2.5,32.7-3.4,0-.2-25.8.7-32.7,3.4,0,0,0,0,0,0,24.4-16.4,53.8-17.2,60.8-3.3h0Z"/>
    <path d="M290.8,8.3c-19.4,19.4-43,28.3-57.3,20.3,0,0,0-.1,0-.2,0-.2,24.9-9.8,30.3-12.4,0-.2-24.5,7.8-30.3,12.4h0c18.5-22.6,46.4-31.5,57.3-20.1Z"/>
    <path d="M526.8,689.8c-65.4,23.9-126.6,2.7-128.3-26.9l.4-.2c-.5.8,53.2,17.4,67.2,17.2-.5.7-52.3-14.3-67.2-17.2,0,0,0,0,0,0,62.8-5.2,117.3-1.9,127.8,27.1Z"/>
    <path d="M610,645.1c-52.5,33.1-110.7,23.8-120.4-3.5,0,0,.2-.2.2-.3-.4.8,51,7.1,63.4,4.6-.3.7-49.9-4.5-63.4-4.6,0,0,0,0,0,0,52.9-15.7,103.3-21.6,120,3.9h0Z"/>
    <path d="M675.7,589c-40.5,39.3-94.5,40.3-110.3,16.5,0,0,0-.2.2-.3-.2.7,47.7-1.9,58.4-6.2-.2.7-46.4,4-58.4,6.2,0,0,0,0,0,0,43.4-23.7,88.8-37.3,110.1-16.1h0Z"/>
    <path d="M722.3,528.6c-29.8,42.7-78.8,52.1-98.9,32.3,0,0,0-.2,0-.3,0,.7,43.6-9.2,52.7-14.9,0,.6-42.2,10.8-52.7,14.9,0,0,0,0,0,0,34.6-29,74.7-48.6,98.8-31.9h0Z"/>
    <path d="M754.6,464.4c-19.9,44.2-63.5,60.4-86.4,45,0,0,0-.2,0-.3,0,.6,38.8-15.3,46.3-21.9,0,.6-37.4,16.5-46.3,21.9h0c26.2-32.6,60.5-56.8,86.3-44.7h0Z"/>
    <path d="M773,400.6c-11.2,44.1-48.9,65.4-73.3,54.3,0,0,0-.2,0-.3.1.6,33.7-19.9,39.6-27.2.2.5-32.2,20.7-39.6,27.2,0,0,0,0,0,0,18.6-34.4,46.9-61.8,73.3-54Z"/>
    <path d="M779.6,339.3c-3.5,42.6-35.2,67.7-60.2,60.7,0,0,0-.2,0-.2.2.5,28.4-23.3,32.8-30.8.2.4-26.9,23.8-32.8,30.8,0,0,0,0,0,0,11.6-34.8,34.1-64.3,60.2-60.4h0Z"/>
    <path d="M775.7,278.3c3.7,40.3-22,67.9-46.6,64.9,0,0,0-.1-.1-.2.3.4,22.8-25.7,25.7-33.3.3.4-21.4,25.9-25.7,33.3,0,0,0,0,0,0,5.1-34.3,21.4-64.8,46.7-64.6h0Z"/>
    <path d="M762.4,222.5c9.7,37.2-9.9,66.3-33.5,66.6,0,0,0-.1-.2-.2.3.3,17.3-27,18.8-34.5.3.3-16,27-18.8,34.5,0,0,0,0,0,0-.7-32.8,9.9-63.6,33.7-66.4Z"/>
    <path d="M739.8,169.2c15.1,33.6,1.5,63.1-20.5,66.6,0,0-.1-.1-.2-.2.3.3,11.7-27.5,12-34.7.3.2-10.6,27.2-12,34.7,0,0,0,0,0,0-6.1-30.7-1.2-60.8,20.7-66.4h0Z"/>
    <path d="M710.3,122.6c19.5,29.7,11.5,58.8-8.5,64.7,0,0-.1,0-.2-.1.3.2,6.5-27.2,5.6-33.9.3.2-5.5,26.8-5.6,33.9,0,0,0,0,0,0-10.7-28-11-56.9,8.7-64.6h0Z"/>
    <path d="M671.2,78.3c23.5,25.4,21.2,53.5,3.5,61.5,0,0-.1,0-.2-.1.3.1,1.3-26.2-.8-32.4.3.1-.4,25.7.8,32.4,0,0,0,0,0,0-15-24.9-20.4-52-3.3-61.4h0Z"/>
    <path d="M625.2,40.4c26.7,21.1,29.5,47.4,14.5,57,0,0-.1,0-.2,0,.3,0-3.6-24.6-6.7-30.1.3,0,4.3,24,6.7,30.1,0,0,0,0,0,0-18.7-21.5-28.8-46.3-14.2-56.9Z"/>
    <path d="M573.2,9c29.1,16.8,36.6,40.9,24.3,51.6,0,0-.1,0-.2,0,.3,0-8-22.5-12-27.4.3,0,8.5,21.9,12,27.4,0,0,0,0,0,0-21.7-18-35.9-40.1-24.1-51.5h0Z"/>
    <path d="M472.1,584.9c-43,17.7-79.4,47.2-73.8,76.9.1,0,.3,0,.4.1,1.4.4,39.5-32.1,46.4-39.1,1.2.2-30.8,33.8-46.4,39.1,0,0,0,0,.1,0,65-11.3,92.6-52.4,73.3-77h0Z"/>
    <path d="M534.2,555.9c-34.7,23.9-58,57.9-45,84.6h.4c1.2.2,25.6-36.8,30.2-44.5,1,0-18.3,36.8-30.2,44.5h.1c53.2-21.7,68.3-64.7,44.5-84.6h0Z"/>
    <path d="M584.9,517.7c-26.8,28.3-38.9,64.1-20.3,86.8.1,0,.2,0,.3,0,1,0,13.7-38.7,16.1-46.7.8-.1-7.6,37.5-16.1,46.7h0c42-29.2,46.4-71.9,19.9-86.8h0Z"/>
    <path d="M622.8,475.4c-19.6,30.8-22.6,66.4-.4,84.7,0,0,.2,0,.3,0,.8-.2,4-38.4,4.7-46.3.7-.2,1,36.4-4.7,46.3,0,0,0,0,0,0,32.1-33.9,27.9-74.7,0-84.6h0Z"/>
    <path d="M650.8,429c-12.8,32.1-8.3,66,16.3,79.7,0,0,.2,0,.3-.1.7-.3-4.1-36.6-5-44.2.5-.3,8.2,34,5,44.2,0,0,0,0,0,0,22.9-36.7,11.5-74.3-16.7-79.6h0Z"/>
    <path d="M668.9,381.7c-6.7,32.2,3.9,63.5,29.7,72.7,0,0,.2-.1.2-.2.5-.3-10.6-33.8-12.7-40.8.4-.4,13.8,30.9,12.7,40.8,0,0,0,0,0,0,14.7-37.7-2.4-71.5-30-72.5h0Z"/>
    <path d="M678.2,335.2c-1.2,31.5,14.1,59.5,40,64.6,0,0,.1-.1.2-.2.4-.4-15.7-30.3-18.8-36.6.3-.4,18.1,27.2,18.8,36.6,0,0,0,0,0,0,7.4-37.3-14-66.9-40.2-64.3h0Z"/>
    <path d="M679.6,287.7c4,30,23.2,54.3,48.3,55.4,0,0,0-.1.2-.2.3-.4-19.9-26.3-23.8-31.9.2-.4,21.5,23.1,23.8,31.9,0,0,0,0,0,0,.7-35.9-24.2-61-48.5-55.2h0Z"/>
    <path d="M672.6,240.1c8.9,27.9,31,48.1,54.7,45.7,0,0,0-.1.1-.2.2-.4-23.1-21.9-27.8-26.7.2-.4,24.1,18.9,27.8,26.7,0,0,0,0,0,0-5.5-33.7-33.1-54.1-54.9-45.4Z"/>
    <path d="M659.6,199.3c12.7,25.5,36.6,41.9,58.5,36.7,0,0,0-.1,0-.2.2-.4-25.1-17.8-30.2-21.8,0-.3,25.6,14.9,30.2,21.8,0,0,0,0,0,0-10.4-30.9-39.4-47-58.6-36.4h0Z"/>
    <path d="M639.8,159.9c16.2,22.7,41.2,35.3,60.9,27.8,0,0,0-.1,0-.2,0-.3-26.4-13.7-31.8-16.9,0-.3,26.4,11.1,31.8,16.9h0c-14.7-27.7-44.6-39.7-61-27.6h0Z"/>
    <path d="M611.5,121.4c19.5,19.6,45.2,28.4,62.2,18.9v-.2c0-.3-27.1-9.7-32.9-12,0-.3,26.8,7.3,32.9,12h0c-18.6-24.1-49-31.9-62.2-18.7h0Z"/>
    <path d="M576.7,87.3c22.2,16.4,47.9,21.6,62.1,10.8,0,0,0-.1,0-.2,0-.3-27.2-5.9-33.1-7.5,0-.2,26.5,3.8,33.1,7.5,0,0,0,0,0,0-21.9-20.2-52-24.3-62.1-10.5h0Z"/>
    <path d="M535.9,57.9c24.3,13.1,49.6,15.2,60.9,3.5,0,0,0-.1,0-.2,0-.2-26.8-2.5-32.7-3.4,0-.2,25.8.7,32.7,3.4,0,0,0,0,0,0-24.4-16.4-53.8-17.2-60.8-3.3h0Z"/>
    <path d="M492.3,8.3c19.4,19.4,43,28.3,57.3,20.3,0,0,0-.1,0-.2,0-.2-24.9-9.8-30.3-12.4,0-.2,24.5,7.8,30.3,12.4h0c-18.5-22.6-46.4-31.5-57.2-20.1h0Z"/>
  </g>
</svg>
